PathFileType	4	(X/Y/Z)	Patient4_TMGait_0pt3_02_left_10.trc.trc
DataRate	CameraRate	NumFrames	NumMarkers	Units	OrigDataRate	OrigDataStartFrame	OrigNumFrames
50.359712230216	50.359712230216	4	33	mm	50.359712230216	36	       141
Frame#	Time	Sacral			L.Shoulder			Chest			R.Shoulder			Neck			R.ASIS			L.ASIS			R.Thigh.Superior			R.Thigh.Lateral			R.Thigh.Inferior			R.Patella			L.Thigh.Superior			L.Thigh.Lateral			L.Thigh.Inferior			L.Patella			L.Shank.Superior			L.Shank.Lateral			L.Shank.Inferior			R.Shank.Superior			R.Shank.Lateral			R.Shank.Inferior			R.Heel			R.Midfoot.Superior			R.Midfoot.Lateral			R.Toe			L.Heel			L.Midfoot.Lateral			L.Midfoot.Superior			L.Toe			L.Elbow			L.Wrist			R.Elbow			R.Wrist			
		X1	Y1	Z1	X2	Y2	Z2	X3	Y3	Z3	X4	Y4	Z4	X5	Y5	Z5	X6	Y6	Z6	X7	Y7	Z7	X8	Y8	Z8	X9	Y9	Z9	X10	Y10	Z10	X11	Y11	Z11	X12	Y12	Z12	X13	Y13	Z13	X14	Y14	Z14	X15	Y15	Z15	X16	Y16	Z16	X17	Y17	Z17	X18	Y18	Z18	X19	Y19	Z19	X20	Y20	Z20	X21	Y21	Z21	X22	Y22	Z22	X23	Y23	Z23	X24	Y24	Z24	X25	Y25	Z25	X26	Y26	Z26	X27	Y27	Z27	X28	Y28	Z28	X29	Y29	Z29	X30	Y30	Z30	X31	Y31	Z31	X32	Y32	Z32	X33	Y33	Z33	

36	20.105000000000	740.713433697968	1002.515540739958	534.310623289613	882.011409381205	1408.184187419593	298.466088091949	1017.565705074391	1348.914924551308	437.931696909246	975.588995754631	1440.136875961290	617.078127104735	901.679881613122	1483.421266753933	449.019451890146	982.131116733304	931.718993786504	619.572107745694	931.879954768292	950.770861379455	349.008158151516	979.721195558916	717.698983533946	591.639943848491	881.992275415235	619.613688395919	657.534662231816	940.250601755594	555.966001459082	573.603030191830	920.661278571714	462.302604086236	582.420024728548	1012.102895392402	761.461252334966	385.434142153855	947.488769013282	632.918999351507	319.865534072966	1046.584162209332	570.415316008806	381.029252107382	1058.816525562839	498.671539794504	386.316700171761	1033.842052351848	422.978253224187	376.303401125820	948.932862364783	307.678041932170	317.855385843634	1003.243970895438	195.195942297362	385.502564251591	864.101793091027	385.315298942030	590.921748203139	765.797557812452	307.713932402044	656.579322864973	776.449562034354	204.951422808523	594.263515854011	603.198678876914	66.374246057230	567.009045738176	778.191425110676	98.659026264659	601.839592339872	684.273339874528	49.632788290195	641.764637181162	890.770424433886	37.391310067305	635.369376550789	877.627614105307	37.900480627825	415.121464761290	956.257510008257	35.929876243335	338.544377574187	1037.937483257666	96.720617446354	371.081881307404	1167.348137852197	46.360122680065	349.702902479599	765.674010403951	1063.700061273774	238.258700745013	841.948918170993	813.519277359022	246.513399867964	1190.928199768361	1198.305076187293	736.502671170890	1382.672456490388	1329.476012538599	634.314016185867	
37	20.124857142857	741.112473010540	1004.494417902985	529.673163802152	883.783867475487	1409.440660935853	293.644805181504	1018.591393432820	1350.499436060793	433.989316937000	975.550032147057	1442.399425616559	612.546222102064	902.254755174945	1485.018183861444	444.265788851134	982.029004834341	933.351100431420	616.122697763714	932.881989600317	952.121406508516	345.329788341294	979.899955529088	719.313190681502	588.914178577585	882.340601867702	621.324268473413	655.083423424338	941.288632003045	557.223961399924	571.814084881372	921.750877402859	462.859057514328	581.622974416316	1010.882692226051	761.072704779283	381.430734679767	944.207043258929	633.191260544830	316.950903568893	1042.307410920926	569.707273943322	378.410392047138	1053.629507862127	498.276484940367	384.213957486620	1028.621940918200	422.790442318422	374.488684363379	943.631583167596	307.364731308750	316.545174313143	997.596271327997	195.124562316540	384.838873567008	863.876502434541	386.790232779004	590.129398973527	764.072061063825	310.993487864253	655.426848162475	774.033601946778	207.483521820732	594.151411871370	598.839566689168	71.818530751980	567.078846625203	774.542098904904	99.799566304552	602.306555736550	679.455777422058	52.792661199983	641.765322474504	885.203398657539	37.027637107761	635.363153281435	871.799760274578	37.844447268248	415.074495413417	950.425880714465	35.900299141754	338.467135951363	1032.086208974226	96.704353336767	370.947093179813	1161.558192083460	46.331565300082	349.640072656440	771.036383303663	1063.779305799701	231.532022901541	856.140735152590	816.351943081486	238.855901143196	1189.761517154946	1199.092367231074	732.344428856804	1385.258359194123	1325.659533841363	631.036075326365	
38	20.144714285714	741.455726413496	1006.407659191614	525.049985451909	885.478842041517	1410.853398988866	289.052532422238	1019.430051220010	1352.257991051253	430.376406820140	975.137659432431	1444.770270059992	608.318227973683	902.645602219301	1486.726030865056	439.754556407878	981.890538882376	935.089798011555	612.673042717613	933.847982426166	953.629181004151	341.668512208759	980.440063936487	721.114998730700	586.133949797034	883.272572730484	623.052785890515	652.597477314101	943.022907311496	558.592589164276	569.996414770140	923.598739869371	463.435490938640	580.859501244409	1009.501734204025	760.601171015499	377.385309399902	940.668749770009	633.468989330418	314.082259263927	1037.711844493272	568.968146067742	375.871482826222	1048.070372807418	497.874293843713	382.180341496266	1023.078444961783	422.663805684356	372.721999539495	938.088904015664	307.058336716412	315.338204324776	991.801678872401	195.077729457939	384.200186285758	864.319236570435	388.307991446026	589.372985069317	762.957945225748	314.423470406279	654.265666542333	772.107441297914	210.140586484616	594.072421753297	594.776491361965	77.717120115262	567.164069202696	771.207172146946	100.990822633934	602.897450276366	674.818458761719	56.193472473461	641.783148113435	879.652543098214	36.734829256340	635.335150563685	865.918157870192	37.813848521430	415.053828739834	944.534055600446	35.881473645984	338.423837118003	1026.199897840706	96.657137978535	370.830890957796	1155.712340337065	46.207639066045	349.570625921521	776.946065038292	1063.978132677574	224.495395175574	869.921883473282	819.296398020526	230.843618628646	1187.783125419265	1199.431158049831	728.531603304126	1387.879429305523	1320.494590049032	628.903006595656	
39	20.164571428571	741.745048345198	1008.197153709226	520.447393851964	887.038903013465	1412.386933212566	284.713143501543	1020.059624507817	1354.135474826907	427.071880755379	974.385650036539	1447.156112420786	604.405703624498	902.845745838444	1488.487908135521	435.515387191735	981.734561456221	936.878413231684	609.194424016297	934.777585506777	955.227794182408	338.003685672949	981.307862405322	723.030695554816	583.316571648582	884.707183329976	624.759964858378	650.091819769698	945.355438317043	560.017839110628	568.163267855443	926.091455262029	464.005874627138	580.125734465008	1008.055867123000	760.078895511682	373.391558603669	937.075447279584	633.742203276166	311.292971506136	1033.014983340477	568.220957535167	373.459006679649	1042.387764795541	497.459162444482	380.260158597959	1017.427116314897	422.573798140433	371.046079722737	932.475170069976	306.775048833429	314.244979754666	985.951683267568	195.040219677729	383.612014974519	865.349952697929	389.825297887332	588.658713371522	762.404032094431	317.943971314570	653.126622001626	770.626551972666	212.869873388522	594.042004440566	591.010238568812	83.975073012105	567.293446864872	768.153570773094	102.196429374100	603.622176371994	670.356414446722	59.772098047437	641.837403927212	874.107829316388	36.509537220179	635.290643029185	859.992358663906	37.818073614346	415.058254706549	938.592960704017	35.882213437667	338.418589465947	1020.293195497244	96.582452572630	370.745614232272	1149.822723285946	45.979101034486	349.501404866349	783.448015222288	1064.245438789152	217.235782376986	883.215648294186	822.185191658646	222.606591322763	1184.917193994111	1199.137962844548	725.080120023395	1390.356772309042	1313.704776823996	627.930620142024	
